inDegrees=no
num_controls=7
num_derivatives=13
num_iterations=138
num_multipliers=7
num_parameters=0
num_slacks=7
num_states=26
objective=5.179000
objective_accelerations=0.499925
objective_balance=0.038777
objective_effort=0.207786
objective_height=4.408698
objective_ligament=0.023815
solver_duration=1545.306645
status=Solve_Succeeded
success=true
DataType=double
version=3
OpenSimVersion=4.4-2022-07-23-0e9fedc
endheader
time	/jointset/ground_pelvis/pelvis_tilt/value	/jointset/ground_pelvis/pelvis_tx/value	/jointset/ground_pelvis/pelvis_ty/value	/jointset/hip_l/hip_flexion_l/value	/jointset/hip_l/hip_adduction_l/value	/jointset/hip_l/hip_rotation_l/value	/jointset/back/lumbar_extension/value	/jointset/patellofemoral_l/patellar_flexion_l/value	/jointset/knee_l/knee_flexion_l/value	/jointset/knee_l/knee_adduction_l/value	/jointset/knee_l/knee_rotation_l/value	/jointset/ankle_l/ankle_angle_l/value	/jointset/subtalar_l/subtalar_angle_l/value	/jointset/ground_pelvis/pelvis_tilt/speed	/jointset/ground_pelvis/pelvis_tx/speed	/jointset/ground_pelvis/pelvis_ty/speed	/jointset/hip_l/hip_flexion_l/speed	/jointset/hip_l/hip_adduction_l/speed	/jointset/hip_l/hip_rotation_l/speed	/jointset/back/lumbar_extension/speed	/jointset/patellofemoral_l/patellar_flexion_l/speed	/jointset/knee_l/knee_flexion_l/speed	/jointset/knee_l/knee_adduction_l/speed	/jointset/knee_l/knee_rotation_l/speed	/jointset/ankle_l/ankle_angle_l/speed	/jointset/subtalar_l/subtalar_angle_l/speed	/forceset/tau_hip_flexion_l	/forceset/tau_hip_adduction_l	/forceset/tau_hip_rotation_l	/forceset/tau_knee_flexion_l	/forceset/tau_ankle_angle_l	/forceset/tau_subtalar_angle_l	/forceset/tau_lumbar_extension	lambda_cid13_p0	lambda_cid13_p1	lambda_cid13_p2	lambda_cid13_p3	lambda_cid13_p4	lambda_cid13_p5	lambda_cid14_p0	/jointset/ground_pelvis/pelvis_tilt/accel	/jointset/ground_pelvis/pelvis_tx/accel	/jointset/ground_pelvis/pelvis_ty/accel	/jointset/hip_l/hip_flexion_l/accel	/jointset/hip_l/hip_adduction_l/accel	/jointset/hip_l/hip_rotation_l/accel	/jointset/back/lumbar_extension/accel	/jointset/patellofemoral_l/patellar_flexion_l/accel	/jointset/knee_l/knee_flexion_l/accel	/jointset/knee_l/knee_adduction_l/accel	/jointset/knee_l/knee_rotation_l/accel	/jointset/ankle_l/ankle_angle_l/accel	/jointset/subtalar_l/subtalar_angle_l/accel	gamma_cid13_p0	gamma_cid13_p1	gamma_cid13_p2	gamma_cid13_p3	gamma_cid13_p4	gamma_cid13_p5	gamma_cid14_p0
0	-0.04310977047711166	0.07050012027921844	0.896096549522357	0.1955292361009247	-0.3204526725758328	-0.5139357939371607	-0.137903700187828	0.0701535092838937	0.07015350928391206	-0.1745328762499295	-0.1468810257414953	-0.06701017130107029	0.00583428625066057	0	0	0	0	0	0	0	0	0	0	0	0	0	0.1057650340894189	-0.1346328212420612	-0.04127083988870964	-0.2802917835647611	0.2820347876599133	-0.0120527114738263	-0.04306962378579007	55.23104199594429	-7.548463798340165	4.42262497221083	-39.82178406579079	-520.4365404007386	-88.52588387306051	-40.72685999629177	-2.210944378364434	-0.4040337448165708	-0.6886530543474796	7.832204455887486	-2.276943276287724	3.298901244670765	-2.34375013755716	9.625922907252315	9.625922907255939	0.3984504477814733	-0.4048559174900981	4.028900932694134	-0.2950762558758869	-5.895177769843505e-08	8.441614751808652e-08	1.512828972707586e-07	2.535633414106954e-08	-3.622060338079261e-08	-8.494842265881357e-08	-1.719022760524651e-08
0.01	-0.0432131427068046	0.07048010381174637	0.8960632111442507	0.195905998602795	-0.3205645107161258	-0.5137696629825068	-0.1380249894692917	0.07062161621961525	0.07062161621965908	-0.1745153515598139	-0.1468952992669652	-0.06681430863686948	0.005818637376566688	-0.02055252914114447	-0.004014019410360397	-0.006645893360448944	0.07504445718812028	-0.02224681166559786	0.03309339818063922	-0.02404950062768628	0.09321715859832348	0.09321715859832273	0.003527470660966878	-0.002838312055759656	0.03897540214939721	-0.003106552765447293	0.1005354391991136	-0.134400030140935	-0.03992416724663905	-0.2712719424666268	0.2671336282829115	-0.006018992982885896	-0.03897170863424691	50.62823000084401	-9.362345628729976	4.71107157348208	-37.04087612752089	-521.2349508067508	-92.54825734589724	-40.73583150958692	-1.959131996668803	-0.4016898539071956	-0.6492973821010115	7.294346701135455	-2.180458270123356	3.294621234705475	-2.404296676022884	9.108981492614276	9.108981492612291	0.3333089561510671	-0.2208419726388478	3.802286421476546	-0.3149916427615983	-9.837985407754778e-08	1.252532026961267e-07	2.092439825187737e-07	5.983129928296282e-08	-1.994534144256116e-07	-1.265434295584507e-07	-2.137152793633512e-08
0.02	-0.04351838519084199	0.07041962638722038	0.8959640658514954	0.1970239617467165	-0.320895198604755	-0.513276585620034	-0.1383805230871658	0.07200976857258078	0.07200976857258465	-0.174461869445993	-0.1469374605376261	-0.06623460663809073	0.005772613603640952	-0.04037405086939035	-0.008092191410781525	-0.0131613829298447	0.1482401284107476	-0.04376994966830582	0.06538928155907162	-0.0468488672813696	0.1840090834563045	0.1840090834562885	0.007191484557758544	-0.005577549032306692	0.07676786691534536	-0.00607497976621239	0.09530584430850002	-0.1341672390397909	-0.03857749460449437	-0.2622521013688895	0.2522324689057167	1.472550796792628e-05	-0.03487379348276667	46.08530810716721	-11.18864663075097	5.003708359140679	-34.49418599057071	-521.2096068508769	-96.40916912589633	-40.76227662253682	-2.064742895785255	-0.4168642628282286	-0.6625722961369208	7.462447262788392	-2.132208543710602	3.139398284229367	-2.093723342756714	9.14087615918374	9.140876159184462	0.4257590949444676	-0.3850409016475365	3.792313456004583	-0.2674511029402284	-1.378079304566605e-07	1.660902578741669e-07	2.672050677667888e-07	9.43062644248561e-08	-3.626862254704305e-07	-1.681384364580878e-07	-2.555282826742372e-08
0.03	-0.04401860697173589	0.07031817538158081	0.8958002094497063	0.1988651702606714	-0.3214374947307319	-0.5124648042062683	-0.138957636735728	0.07429404567616023	0.07429404567615022	-0.1743712295345016	-0.1470069192354191	-0.06528266184330228	0.005697711130170323	-0.05955488965840548	-0.01219447990089091	-0.0196031013517253	0.2196800490079276	-0.0645654825050474	0.0968318779871952	-0.06838586760844682	0.2724266557779632	0.2724266557779659	0.01092799054137413	-0.008295919619844305	0.1134286437606404	-0.00887832911456512	0.09054548476018093	-0.1268763078842175	-0.03746532359739594	-0.255068088505299	0.2432054607061851	-0.001200327007394993	-0.03114001267086243	43.13342022968974	-10.32946904304916	5.078472716110793	-32.29566987797589	-521.4377468882756	-94.127947994452	-40.80513405873952	-1.827458267952552	-0.4063626681033113	-0.6340254006007403	6.936513100704738	-2.034707931996539	3.126388900327268	-2.155489154869058	8.629250674166087	8.629250674168635	0.3463821576925342	-0.2124636182769176	3.574083384824956	-0.2827543647621473	-1.705661463596092e-07	1.835461648107278e-07	3.241832554023718e-07	1.194463608369164e-07	-4.940499327366643e-07	-2.123503330363129e-07	-3.130927149239006e-08
